<svg width="57" height="57" viewBox="0 0 57 57" fill="none" xmlns="http://www.w3.org/2000/svg">
<circle cx="28.4998" cy="28.5001" r="28.5" fill="#0082FF" fill-opacity="0.1"/>
<path fill-rule="evenodd" clip-rule="evenodd" d="M30.0747 19.1794C29.9139 19.3402 29.8967 19.3915 29.9189 19.6435C29.9327 19.7994 29.9669 19.9788 29.9949 20.0421C30.038 20.1394 30.0281 20.1503 29.9307 20.1118C29.5361 19.9561 28.8304 19.8228 28.2585 19.7961C26.53 19.715 24.8333 20.5077 23.7999 21.8791C23.3092 22.5304 23.0531 23.0656 23.1035 23.3344C23.1581 23.6257 23.4374 23.8493 23.7465 23.8493C24.0384 23.8493 24.21 23.6877 24.5144 23.1257C24.8018 22.5954 25.5636 21.8482 26.1129 21.5579C26.6979 21.2487 27.336 21.0947 28.0318 21.0947C28.5636 21.0947 29.4281 21.237 29.4247 21.324C29.4239 21.3461 29.3206 21.4113 29.1952 21.469C28.7862 21.6574 28.6853 22.1142 28.9765 22.4603C29.2281 22.7592 29.3521 22.7489 30.4674 22.3367C31.6182 21.9114 31.8216 21.7736 31.8216 21.4196C31.8216 21.2299 31.3053 19.7544 31.0897 19.3281C30.9813 19.1136 30.7845 19.0014 30.5146 19C30.3051 18.9989 30.2208 19.0334 30.0747 19.1794ZM18.4206 24.7745C17.8295 24.9176 17.2143 25.2714 16.7583 25.7304C15.5709 26.9257 15.3827 28.5514 16.2342 30.2569C16.6225 31.0347 17.3291 31.7656 18.0013 32.0849C18.8795 32.5019 19.6077 32.5054 20.4628 32.0968C21.2388 31.726 21.8055 31.1472 22.2684 30.2528C22.6188 29.5758 22.7871 28.9488 22.7948 28.2915C22.8069 27.2516 22.4864 26.4761 21.7375 25.7331C21.2014 25.2012 20.7398 24.9357 20.0812 24.7805C19.6191 24.6715 18.8571 24.6688 18.4206 24.7745ZM36.1333 24.7785C34.3663 25.2119 33.1988 26.8943 33.4347 28.6671C33.6949 30.6218 35.1087 32.2247 36.7188 32.3903C38.3163 32.5546 40.0016 31.0279 40.4097 29.0468C40.5366 28.4308 40.5296 27.9177 40.3866 27.3583C40.2185 26.7012 39.9442 26.2228 39.4511 25.7267C38.9835 25.2563 38.3007 24.876 37.7023 24.753C37.2811 24.6663 36.5414 24.6784 36.1333 24.7785ZM31.9646 25.4024C31.8102 25.4682 31.6758 25.6441 31.4037 26.1368C31.2876 26.3469 30.9918 26.7179 30.7364 26.9738C30.365 27.3459 30.1709 27.4849 29.7172 27.7041C28.7545 28.1691 27.6899 28.2796 26.7916 28.0077L26.4624 27.908L26.712 27.7905C27.322 27.5034 27.2493 26.6692 26.6053 26.567C26.4493 26.5422 26.1728 26.6221 25.414 26.9115C24.4008 27.2979 24.1925 27.4278 24.1193 27.7192C24.0735 27.9018 24.1129 28.0305 24.5903 29.259C24.9332 30.1413 25.0698 30.2871 25.5037 30.2338C25.9364 30.1807 26.15 29.7918 25.9956 29.3386L25.9061 29.0761L26.3338 29.2115C28.1682 29.7923 30.2674 29.2698 31.6673 27.8839C32.2841 27.2732 32.8397 26.37 32.8397 25.9778C32.8397 25.5681 32.3427 25.2413 31.9646 25.4024ZM15.46 32.1957C13.7065 33.2515 12.4514 35.1098 12.0893 37.1861C12.0402 37.4678 12 37.9124 12 38.1741C12 38.6202 12.011 38.6609 12.175 38.825L12.3501 39H19.2333H26.1165L26.2788 38.8724C26.5244 38.6792 26.5535 38.5334 26.4904 37.8143C26.3315 36.0039 25.5867 34.4337 24.2977 33.1911C23.973 32.8781 23.4845 32.4769 23.2121 32.2994L22.7169 31.9769L22.3438 32.3334C21.3732 33.2609 20.4296 33.6676 19.2436 33.6694C18.5396 33.6705 18.1156 33.5672 17.4195 33.225C16.8931 32.9662 16.0779 32.3478 15.9513 32.1113C15.8685 31.9566 15.8524 31.9594 15.46 32.1957ZM33.0454 32.2702C32.2064 32.8292 31.6632 33.3388 31.107 34.0889C30.2524 35.2417 29.7339 36.73 29.7065 38.1094C29.6958 38.6488 29.6959 38.6495 29.8913 38.8247L30.0869 39H36.9772H43.8676L44.0514 38.8162L44.2351 38.6324L44.2001 37.9928C44.1047 36.2491 43.4395 34.6961 42.2364 33.4078C41.7925 32.9325 41.0239 32.317 40.6113 32.1065L40.3712 31.984L40.0655 32.2963C39.4445 32.9304 38.6771 33.3814 37.8715 33.5858C37.2907 33.7331 36.2465 33.6809 35.6658 33.4755C35.0505 33.2578 34.4546 32.8867 33.9485 32.4059C33.7098 32.1791 33.5024 31.9936 33.4876 31.9936C33.4729 31.9936 33.2739 32.1181 33.0454 32.2702Z" fill="#4162FF"/>
</svg>
