<svg width="35" height="35" viewBox="0 0 35 35" fill="none" xmlns="http://www.w3.org/2000/svg">
<circle cx="17.5" cy="17.5" r="17.5" fill="#0C1334"/>
<path d="M9.42864 12C8.63728 12 8 12.5946 8 13.3334V22.6666C8 23.4052 8.63707 24 9.42864 24H26.5714C27.3627 24 28 23.4054 28 22.6666V13.3334C28 12.5948 27.3629 12 26.5714 12H9.42864ZM10.5 14.2152C10.6525 14.2023 10.7769 14.2485 10.8795 14.3333L17.3004 19.7428C17.7033 20.0822 18.2804 20.0824 18.6843 19.7428L25.1205 14.3333C25.3055 14.1769 25.6264 14.1918 25.794 14.3646C25.9615 14.5373 25.9456 14.8368 25.7604 14.9932L22.1221 18.0557L25.7529 20.9931C25.9431 21.1455 25.967 21.446 25.8029 21.6229C25.6388 21.7997 25.3168 21.8207 25.128 21.6667L21.4078 18.6529L19.3245 20.4098C18.57 21.0441 17.415 21.0383 16.6609 20.403L14.585 18.6529L10.8723 21.6667C10.6835 21.8206 10.3614 21.7997 10.1974 21.6228C10.0333 21.446 10.057 21.1454 10.2474 20.993L13.8709 18.0557L10.2401 14.9932C10.1009 14.8806 10.0425 14.6887 10.0974 14.5247C10.1524 14.3607 10.3175 14.2341 10.5005 14.2155L10.5 14.2152Z" fill="#4162FF"/>
</svg>
