<svg width="16" height="17" viewBox="0 0 13 14" fill="none" xmlns="http://www.w3.org/2000/svg">
<g clip-path="url(#clip0_3_868)">
<path d="M9.39454 0.83167L7.79395 0.829102C5.99574 0.829102 4.83366 2.02136 4.83366 3.8667V5.26723H3.22433C3.08527 5.26723 2.97266 5.37997 2.97266 5.51904V7.54825C2.97266 7.68731 3.0854 7.79993 3.22433 7.79993H4.83366V12.9203C4.83366 13.0593 4.94627 13.172 5.08533 13.172H7.18504C7.32411 13.172 7.43672 13.0592 7.43672 12.9203V7.79993H9.3184C9.45746 7.79993 9.57007 7.68731 9.57007 7.54825L9.57084 5.51904C9.57084 5.45226 9.54426 5.38832 9.49714 5.34106C9.45001 5.29381 9.38581 5.26723 9.31904 5.26723H7.43672V4.07998C7.43672 3.50934 7.5727 3.21965 8.31605 3.21965L9.39428 3.21927C9.53322 3.21927 9.64583 3.10653 9.64583 2.96759V1.08335C9.64583 0.944539 9.53335 0.831927 9.39454 0.83167Z" fill="white" fill-opacity="0.6"/>
</g>
<defs>
<clipPath id="clip0_3_868">
<rect width="12.343" height="12.3429" fill="white" transform="translate(0.136719 0.829102)"/>
</clipPath>
</defs>
</svg>
