<svg width="152" height="50" viewBox="0 0 126 24" fill="none" xmlns="http://www.w3.org/2000/svg">
<path fill-rule="evenodd" clip-rule="evenodd" d="M0 12C0 5.65248 5.14565 0.506836 11.4931 0.506836H15.2656V8.2274H22.9862V0.506836H22.9862V12C22.9862 18.3474 17.8406 23.4931 11.4931 23.4931C5.14564 23.4931 0 18.3474 0 12ZM2.36816 14.6755C2.36816 11.1141 5.25522 8.22705 8.81659 8.22705H15.265V14.6755C15.265 18.2368 12.378 21.1239 8.81659 21.1239C5.25523 21.1239 2.36816 18.2368 2.36816 14.6755Z" fill="#4162FF"/>
<path d="M26.9502 10.4823C26.9502 7.09778 29.4628 4.47021 32.9623 4.47021C35.0786 4.47021 36.9452 5.54423 37.936 7.19686L35.9703 8.33824C35.4075 7.31575 34.286 6.68561 32.9623 6.68561C30.6993 6.68561 29.2132 8.25502 29.2132 10.4863C29.2132 12.7175 30.6993 14.2711 32.9623 14.2711C34.282 14.2711 35.4234 13.6449 35.9703 12.6343L37.936 13.7757C36.9611 15.4283 35.0945 16.5023 32.9623 16.5023C29.4628 16.4984 26.9502 13.8549 26.9502 10.4823Z" fill="#1D1D35"/>
<path d="M38.4678 12.004C38.4678 9.54293 40.4018 7.64062 42.8312 7.64062C45.2606 7.64062 47.2105 9.53897 47.2105 12.004C47.2105 14.4691 45.2606 16.3675 42.8312 16.3675C40.4018 16.3675 38.4678 14.4691 38.4678 12.004ZM45.0743 12.004C45.0743 10.6645 44.0994 9.72524 42.8272 9.72524C41.5551 9.72524 40.596 10.6685 40.596 12.004C40.596 13.3396 41.5709 14.2829 42.8272 14.2829C44.0836 14.2829 45.0743 13.3396 45.0743 12.004Z" fill="#1D1D35"/>
<path d="M60.1741 11.0449V16.1336H58.0419V11.1955C58.0419 10.2206 57.5465 9.6261 56.6548 9.6261C55.7116 9.6261 55.1171 10.2523 55.1171 11.4927V16.1336H52.9849V11.1955C52.9849 10.2206 52.4895 9.6261 51.5978 9.6261C50.7061 9.6261 50.0443 10.2523 50.0443 11.4927V16.1336H47.9121V7.87439H50.0443V8.75025C50.508 8.0567 51.2847 7.64453 52.3389 7.64453C53.3931 7.64453 54.1224 8.07255 54.586 8.83347C55.0973 8.0884 55.9256 7.64453 57.0472 7.64453C58.9297 7.64453 60.1701 8.98407 60.1701 11.0489L60.1741 11.0449Z" fill="#1D1D35"/>
<path d="M70.038 12.004C70.038 14.4651 68.2189 16.3674 66.0075 16.3674C64.8027 16.3674 63.9268 15.9196 63.3324 15.1626V19.4428H61.2002V7.87439H63.3324V8.84933C63.9268 8.0884 64.8027 7.64453 66.0075 7.64453C68.2229 7.64453 70.038 9.54288 70.038 12.008V12.004ZM67.9058 12.004C67.9058 10.6169 66.9309 9.67366 65.6112 9.67366C64.2915 9.67366 63.3324 10.6169 63.3324 12.004C63.3324 13.3911 64.3073 14.3343 65.6112 14.3343C66.9151 14.3343 67.9058 13.3911 67.9058 12.004Z" fill="#1D1D35"/>
<path d="M70.7471 4.47021H72.8792V16.5301H70.7471V4.47021Z" fill="#1D1D35"/>
<path d="M78.166 14.4335C78.9903 14.4335 79.6522 14.0847 80.0168 13.6091L81.7368 14.5999C80.96 15.7215 79.7196 16.3675 78.1343 16.3675C75.3601 16.3675 73.6084 14.4691 73.6084 12.004C73.6084 9.53897 75.376 7.64062 77.9718 7.64062C80.4171 7.64062 82.1529 9.57464 82.1529 12.004C82.1529 12.3171 82.1212 12.5985 82.0697 12.8799H75.8396C76.1369 13.9698 77.0444 14.4335 78.17 14.4335H78.166ZM80.0168 11.2273C79.7513 10.0383 78.8596 9.55879 77.9679 9.55879C76.8265 9.55879 76.0497 10.1691 75.804 11.2273H80.0168Z" fill="#1D1D35"/>
<path d="M88.0819 16.1337L86.2985 13.6211L84.4992 16.1337H82.0381L85.062 11.9209L82.1728 7.87451H84.6339L86.3024 10.2048L87.9709 7.87451H90.4162L87.5231 11.905L90.547 16.1337H88.0858H88.0819Z" fill="#1D1D35"/>
<path d="M100.617 14.2512V16.4309H93.9268V4.86646H96.2056V14.2512H100.617Z" fill="#1D1D35"/>
<path d="M109.653 7.87426V16.1335H107.521V15.1585C106.927 15.9036 106.035 16.3633 104.83 16.3633C102.635 16.3633 100.815 14.465 100.815 11.9999C100.815 9.53482 102.631 7.63647 104.83 7.63647C106.035 7.63647 106.927 8.10016 107.521 8.84127V7.86634H109.653V7.87426ZM107.521 12.0039C107.521 10.6168 106.546 9.67353 105.226 9.67353C103.907 9.67353 102.948 10.6168 102.948 12.0039C102.948 13.391 103.923 14.3342 105.226 14.3342C106.53 14.3342 107.521 13.391 107.521 12.0039Z" fill="#1D1D35"/>
<path d="M119.236 12.004C119.236 14.4651 117.421 16.3674 115.206 16.3674C114.001 16.3674 113.125 15.9195 112.531 15.1626V16.1375H110.398V4.56909H112.531V8.84929C113.125 8.08836 114.001 7.64449 115.206 7.64449C117.421 7.64449 119.236 9.54284 119.236 12.0079V12.004ZM117.104 12.004C117.104 10.6169 116.129 9.67362 114.809 9.67362C113.49 9.67362 112.531 10.6169 112.531 12.004C112.531 13.3911 113.506 14.3343 114.809 14.3343C116.113 14.3343 117.104 13.3911 117.104 12.004Z" fill="#1D1D35"/>
<path d="M125.992 13.724C125.992 15.5074 124.438 16.3674 122.671 16.3674C121.018 16.3674 119.798 15.6739 119.203 14.4017L121.054 13.3594C121.284 14.0371 121.847 14.4334 122.675 14.4334C123.353 14.4334 123.816 14.2035 123.816 13.724C123.816 12.5192 119.556 13.1771 119.556 10.2721C119.556 8.58776 120.994 7.64453 122.695 7.64453C124.034 7.64453 125.187 8.25486 125.833 9.39624L124.014 10.387C123.769 9.85993 123.305 9.54288 122.695 9.54288C122.168 9.54288 121.736 9.77274 121.736 10.2206C121.736 11.4412 126 10.6843 126 13.724H125.992Z" fill="#1D1D35"/>
</svg>
