<svg width="17" height="18" viewBox="0 0 13 14" fill="none" xmlns="http://www.w3.org/2000/svg">
<g clip-path="url(#clip0_3_879)">
<path d="M12.3521 4.45794C12.3231 3.80211 12.2171 3.35124 12.0652 2.96055C11.9084 2.54585 11.6673 2.17456 11.3514 1.86591C11.0428 1.55246 10.669 1.30889 10.2591 1.15461C9.86618 1.00269 9.41766 0.896634 8.76184 0.867718C8.10112 0.836354 7.89137 0.829102 6.21559 0.829102C4.53982 0.829102 4.33007 0.836354 3.6718 0.865269C3.01597 0.894185 2.5651 1.00033 2.17451 1.15216C1.75971 1.30889 1.38843 1.55001 1.07978 1.86591C0.766323 2.17456 0.52285 2.5483 0.368478 2.9582C0.216555 3.35124 0.110501 3.79966 0.0815853 4.45549C0.0502211 5.11621 0.0429688 5.32596 0.0429688 7.00174C0.0429688 8.67751 0.0502211 8.88726 0.0791365 9.54554C0.108052 10.2014 0.2142 10.6522 0.366124 11.0429C0.52285 11.4576 0.766323 11.8289 1.07978 12.1376C1.38843 12.451 1.76216 12.6946 2.17206 12.8489C2.5651 13.0008 3.01353 13.1068 3.66944 13.1358C4.32762 13.1648 4.53747 13.1719 6.21324 13.1719C7.88901 13.1719 8.09877 13.1648 8.75704 13.1358C9.41286 13.1068 9.86373 13.0008 10.2543 12.8489C11.0838 12.5282 11.7396 11.8723 12.0604 11.0429C12.2122 10.6499 12.3183 10.2014 12.3472 9.54554C12.3762 8.88726 12.3834 8.67751 12.3834 7.00174C12.3834 5.32596 12.381 5.11621 12.3521 4.45794ZM11.2406 9.49731C11.214 10.1001 11.1127 10.4256 11.0284 10.6426C10.821 11.1803 10.3942 11.6071 9.85648 11.8145C9.63947 11.8989 9.31161 12.0001 8.71117 12.0266C8.06015 12.0556 7.8649 12.0628 6.21804 12.0628C4.57119 12.0628 4.37349 12.0556 3.72482 12.0266C3.12203 12.0001 2.79652 11.8989 2.57951 11.8145C2.31193 11.7156 2.06836 11.5589 1.87066 11.3539C1.66571 11.1538 1.50899 10.9127 1.41009 10.6451C1.3257 10.4281 1.22445 10.1001 1.19798 9.49976C1.16897 8.84874 1.16181 8.6534 1.16181 7.00654C1.16181 5.35968 1.16897 5.16198 1.19798 4.51341C1.22445 3.91062 1.3257 3.58511 1.41009 3.3681C1.50899 3.10042 1.66571 2.85695 1.87311 2.65915C2.07316 2.4542 2.31428 2.29748 2.58196 2.19867C2.79897 2.11428 3.12693 2.01303 3.72727 1.98647C4.37829 1.95756 4.57364 1.9503 6.2204 1.9503C7.8697 1.9503 8.06495 1.95756 8.71362 1.98647C9.31641 2.01303 9.64192 2.11428 9.85893 2.19867C10.1265 2.29748 10.3701 2.4542 10.5678 2.65915C10.7727 2.8593 10.9295 3.10042 11.0284 3.3681C11.1127 3.58511 11.214 3.91297 11.2406 4.51341C11.2695 5.16443 11.2767 5.35968 11.2767 7.00654C11.2767 8.6534 11.2695 8.84629 11.2406 9.49731Z" fill="white" fill-opacity="0.6"/>
<path d="M6.21368 3.83203C4.46321 3.83203 3.04297 5.25218 3.04297 7.00274C3.04297 8.7533 4.46321 10.1734 6.21368 10.1734C7.96423 10.1734 9.38439 8.7533 9.38439 7.00274C9.38439 5.25218 7.96423 3.83203 6.21368 3.83203ZM6.21368 9.0595C5.07807 9.0595 4.15692 8.13845 4.15692 7.00274C4.15692 5.86703 5.07807 4.94598 6.21368 4.94598C7.34938 4.94598 8.27044 5.86703 8.27044 7.00274C8.27044 8.13845 7.34938 9.0595 6.21368 9.0595Z" fill="white" fill-opacity="0.6"/>
<path d="M10.2501 3.70311C10.2501 4.11188 9.91862 4.44332 9.50975 4.44332C9.10098 4.44332 8.76953 4.11188 8.76953 3.70311C8.76953 3.29424 9.10098 2.96289 9.50975 2.96289C9.91862 2.96289 10.2501 3.29424 10.2501 3.70311Z" fill="white" fill-opacity="0.6"/>
</g>
<defs>
<clipPath id="clip0_3_879">
<rect width="12.3429" height="12.3429" fill="white" transform="translate(0.0195312 0.829102)"/>
</clipPath>
</defs>
</svg>
