<svg width="35" height="35" viewBox="0 0 35 35" fill="none" xmlns="http://www.w3.org/2000/svg">
<circle cx="17.5" cy="17.5" r="17.5" fill="#0C1334"/>
<path d="M22.8017 11.1961C21.386 9.78075 19.5021 9 17.502 9H17.4982C15.4983 9 13.6144 9.78075 12.1985 11.1999C10.779 12.6191 10 14.5114 10 16.5231C10 18.5348 10.779 20.4232 12.1985 21.8462L17.2397 26.8923C17.3109 26.9654 17.4083 27 17.5019 27C17.5955 27 17.6891 26.9654 17.7641 26.8923L22.8015 21.8424C24.221 20.4193 25 18.5309 25 16.5192C25 14.5076 24.221 12.6192 22.8015 11.1961L22.8017 11.1961ZM17.502 18.7884C15.7979 18.7884 14.4084 17.3961 14.4084 15.6808C14.4084 13.9654 15.7941 12.5731 17.502 12.5731C19.2099 12.5731 20.5956 13.9654 20.5956 15.6808C20.5956 17.3961 19.2061 18.7884 17.502 18.7884Z" fill="#4162FF"/>
</svg>
