<svg width="58" height="58" viewBox="0 0 58 58" fill="none" xmlns="http://www.w3.org/2000/svg">
<circle r="28.5" transform="matrix(-4.37114e-08 1 1 4.37114e-08 28.6888 28.9719)" fill="#0082FF" fill-opacity="0.1"/>
<path fill-rule="evenodd" clip-rule="evenodd" d="M20.5505 19.0766C20.349 19.1701 20.1469 19.3785 20.0633 19.5789C20.0068 19.7143 20 20.67 20 28.5005C20 36.331 20.0068 37.2866 20.0633 37.422C20.1469 37.6225 20.349 37.8308 20.5505 37.9243C20.7078 37.9973 21.0268 38 29.5013 38C37.9759 38 38.2949 37.9973 38.4522 37.9243C38.6537 37.8308 38.8558 37.6225 38.9394 37.422C38.9959 37.2866 39.0026 36.3315 39.0018 28.4916C39.0009 20.0268 38.9982 19.707 38.9252 19.5497C38.8317 19.3481 38.6233 19.146 38.4229 19.0624C38.2875 19.0059 37.3323 18.9992 29.4925 19.0001C21.0276 19.0009 20.7078 19.0036 20.5505 19.0766ZM25.0288 22.8352C25.223 22.8892 25.4839 23.1208 25.5965 23.3393C25.7724 23.6803 25.6841 24.1616 25.3967 24.4282C25.1574 24.6501 25.0391 24.6827 24.4064 24.7008C23.7259 24.7202 23.4658 24.6765 23.2254 24.5023C22.8805 24.2525 22.7515 23.7233 22.9403 23.3333C23.0376 23.1322 23.2689 22.9208 23.4718 22.8474C23.6451 22.7846 24.8139 22.7755 25.0288 22.8352ZM35.5015 22.8389C35.5884 22.8649 35.7311 22.9475 35.8187 23.0225C36.4137 23.5318 36.1674 24.5021 35.401 24.6677C35.2513 24.7 34.0519 24.7095 31.2752 24.7005L27.3605 24.6877L27.1946 24.5989C27.1033 24.5501 26.9624 24.4367 26.8813 24.3469C26.4427 23.8616 26.6569 23.0753 27.289 22.8497C27.4973 22.7754 35.2555 22.7652 35.5015 22.8389ZM29.7926 25.6934C30.0041 25.7567 30.2498 25.9737 30.3541 26.1891C30.4299 26.3457 30.4392 26.4389 30.4392 27.0388V27.7126L30.5431 27.7599C30.6002 27.786 30.6681 27.8073 30.6938 27.8073C30.7196 27.8073 30.9358 27.6149 31.1743 27.3799C31.6537 26.9075 31.8128 26.8165 32.1552 26.8185C32.6634 26.8216 33.0869 27.2332 33.0887 27.7257C33.09 28.0938 33.0306 28.199 32.536 28.7043C32.0753 29.1749 32.0721 29.1796 32.1193 29.3046L32.1669 29.4306L32.8628 29.4458C33.6135 29.4622 33.7097 29.486 33.9601 29.7183C34.2475 29.9848 34.3358 30.4662 34.1599 30.8072C34.0473 31.0257 33.7864 31.2573 33.5923 31.3112C33.5065 31.335 33.1557 31.3546 32.8126 31.3547L32.1888 31.355L32.1329 31.4875L32.077 31.62L32.5802 32.1328C33.031 32.5922 33.0903 32.6694 33.1504 32.8761C33.235 33.1669 33.2026 33.4102 33.0467 33.656C32.8768 33.9239 32.6485 34.0598 32.3347 34.0798C31.9201 34.1062 31.8245 34.0538 31.245 33.4826L30.7255 32.9706L30.5824 33.0388L30.4392 33.1071L30.4383 33.7704C30.4376 34.3295 30.4255 34.4593 30.3618 34.5968C30.2054 34.9338 29.8717 35.1473 29.5013 35.1473C29.131 35.1473 28.7973 34.9338 28.6409 34.5968C28.5771 34.4593 28.5651 34.3295 28.5643 33.7704L28.5634 33.1071L28.4194 33.0384L28.2754 32.9697L27.8383 33.4019C27.5979 33.6397 27.3419 33.8639 27.2694 33.9002C26.6544 34.208 25.9125 33.7411 25.9142 33.0472C25.9149 32.725 26.035 32.5215 26.5036 32.0482L26.9275 31.62L26.8707 31.4875L26.8139 31.355L26.1901 31.3547C25.4669 31.3545 25.3144 31.322 25.0915 31.1206C24.6685 30.7384 24.634 30.1563 25.0102 29.7507C25.2428 29.5 25.3784 29.4629 26.1281 29.4458L26.8121 29.4301L26.8752 29.3081L26.9383 29.1861L26.4729 28.7106C25.9552 28.1818 25.8932 28.0664 25.9209 27.6837C25.9564 27.1925 26.3509 26.8216 26.8412 26.8186C27.1904 26.8165 27.3469 26.9054 27.8284 27.3799C28.0669 27.6149 28.2831 27.8073 28.3089 27.8073C28.3346 27.8073 28.4025 27.786 28.4596 27.7599L28.5634 27.7126V27.0388C28.5634 26.4372 28.5727 26.346 28.6492 26.1877C28.8542 25.7645 29.3354 25.5564 29.7926 25.6934ZM29.225 29.4983C28.9679 29.5786 28.7713 29.7481 28.6614 29.9841C28.4268 30.488 28.6178 31.0282 29.1123 31.2584C29.3769 31.3816 29.6258 31.3816 29.8904 31.2584C30.3848 31.0282 30.5759 30.488 30.3413 29.9841C30.2286 29.7422 30.0335 29.5779 29.7618 29.4961C29.5314 29.4268 29.453 29.4271 29.225 29.4983Z" fill="#4162FF"/>
</svg>
