<svg width="58" height="58" viewBox="0 0 58 58" fill="none" xmlns="http://www.w3.org/2000/svg">
<circle r="28.5" transform="matrix(1 0 0 -1 28.706 28.7435)" fill="#0082FF" fill-opacity="0.1"/>
<path fill-rule="evenodd" clip-rule="evenodd" d="M28.26 17.9246C21.413 18.9515 21.8713 18.859 21.4575 19.2965C21.1464 19.6255 21.0221 19.9264 21.0001 20.4042C20.9903 20.6164 21.1773 25.0638 21.4154 30.2873C21.9017 40.9493 21.8405 40.1568 22.2093 40.567C22.3249 40.6956 22.4914 40.8212 22.6277 40.8828L22.854 40.9851L28.3208 40.9975C31.8874 41.0057 33.9332 40.9945 34.2065 40.9655C35.3055 40.8487 35.7846 40.4082 35.91 39.3988L35.9558 39.0307L36.2253 38.7645C36.3735 38.618 36.5373 38.4092 36.5893 38.3003C36.8107 37.8372 36.8223 38.359 36.3667 28.2974C36.1349 23.1779 35.9287 18.76 35.9085 18.4799C35.8643 17.8655 35.7619 17.616 35.4321 17.3195C35.1907 17.1025 34.8978 16.9924 34.5838 17.0005C34.4761 17.0034 31.6303 17.4192 28.26 17.9246ZM30.3671 21.7728C32.1346 22.1502 33.5485 23.4516 34.1472 25.252C34.3578 25.8855 34.4148 26.2279 34.4395 27.0092C34.4658 27.8411 34.4224 28.265 34.2382 28.9757C33.638 31.2911 31.8758 33.1438 29.7469 33.6975C28.5437 34.0104 27.3857 33.9084 26.3129 33.3948C25.7499 33.1253 25.3446 32.8314 24.8953 32.367C23.7621 31.1957 23.2101 29.5638 23.3504 27.7998C23.4259 26.8513 23.6296 26.116 24.0573 25.2493C24.4087 24.537 24.8007 23.988 25.3431 23.4484C26.5473 22.2504 27.9993 21.639 29.5214 21.689C29.8162 21.6987 30.1967 21.7364 30.3671 21.7728ZM30.5966 23.0304C30.7922 23.2367 30.9699 23.4001 30.9915 23.3934C31.0543 23.3739 31.3651 23.1154 31.3651 23.0826C31.3651 23.0223 30.4533 22.6552 30.3032 22.6552C30.269 22.6552 30.401 22.8241 30.5966 23.0304ZM29.075 23.5449C29.0911 23.9399 29.1098 24.2697 29.1167 24.2778C29.164 24.3336 30.2503 23.9194 30.2503 23.8456C30.2503 23.7385 29.1981 22.8267 29.0745 22.8267C29.0587 22.8267 29.0589 23.1499 29.075 23.5449ZM28.1422 23.074C27.7789 23.4576 27.1739 24.2668 27.2178 24.3106C27.2591 24.3519 27.7569 24.4127 28.0563 24.4129L28.3706 24.4132L28.3402 23.6735C28.3236 23.2667 28.3063 22.9294 28.3019 22.924C28.2975 22.9185 28.2256 22.986 28.1422 23.074ZM26.6622 23.3834C26.291 23.6353 26.0483 23.8294 26.0483 23.8744C26.0483 23.8869 26.1436 23.9455 26.26 24.0044L26.4716 24.1117L26.605 23.8785C26.6784 23.7503 26.8243 23.5287 26.9293 23.3861C27.0342 23.2435 27.1021 23.1269 27.0801 23.1269C27.0581 23.1269 26.87 23.2423 26.6622 23.3834ZM31.7501 23.7538C31.5973 23.8858 31.4565 24.0084 31.4372 24.0263C31.418 24.0442 31.5074 24.2784 31.6361 24.5469C31.7647 24.8153 31.9107 25.1603 31.9604 25.3136C32.0895 25.7115 32.2646 26.507 32.2651 26.6977C32.2654 26.7988 32.2887 26.8687 32.3271 26.8835C32.3868 26.9064 33.597 26.7382 33.635 26.7017C33.673 26.6653 33.5398 26.0133 33.4187 25.643C33.1838 24.9242 32.7628 24.2339 32.2572 23.7383L32.028 23.5137L31.7501 23.7538ZM25.1313 24.9173C24.5495 25.7911 24.2027 26.7824 24.1324 27.7715L24.1051 28.1562L24.2085 28.1309C24.2653 28.117 24.5469 28.0726 24.8343 28.0323C25.1216 27.992 25.3806 27.9443 25.4096 27.9263C25.4434 27.9055 25.4752 27.7059 25.4975 27.3746C25.5494 26.6055 25.7643 25.6828 26.0695 24.9194C26.0957 24.854 25.8917 24.7203 25.4412 24.5077C25.4256 24.5003 25.2862 24.6847 25.1313 24.9173ZM30.3575 24.6775C30.1688 24.7695 29.8215 24.9053 29.5857 24.9791C29.3499 25.0531 29.1549 25.1151 29.1524 25.1171C29.1376 25.1288 29.2542 27.3331 29.2705 27.3494C29.2965 27.3755 31.4927 27.0439 31.5281 27.0086C31.5759 26.9608 31.4174 26.1613 31.2769 25.7415C31.1332 25.3119 30.8025 24.5691 30.7384 24.5321C30.7176 24.52 30.5461 24.5854 30.3575 24.6775ZM26.6555 25.4581C26.3997 26.1649 26.22 27.0144 26.2199 27.517L26.2199 27.8124L26.445 27.7858C26.5687 27.7711 27.0827 27.6972 27.5872 27.6215L28.5042 27.4838L28.4759 26.7095C28.4603 26.2837 28.4357 25.7761 28.4212 25.5816L28.3948 25.2278L28.0255 25.227C27.689 25.2262 27.4708 25.2041 26.9652 25.1196L26.7887 25.0901L26.6555 25.4581ZM32.9148 27.6316C32.647 27.6742 32.401 27.7194 32.3681 27.732C32.3259 27.7482 32.3083 27.8337 32.3081 28.0242C32.3076 28.6438 32.0833 29.6915 31.7921 30.4351C31.7002 30.6698 31.6293 30.8631 31.6344 30.8649C31.6396 30.8667 31.7813 30.933 31.9494 31.0123C32.1175 31.0915 32.2744 31.1444 32.298 31.1298C32.3875 31.0745 32.8672 30.3308 33.0506 29.963C33.3861 29.2905 33.5917 28.5806 33.6616 27.854L33.6915 27.5432L33.5466 27.5486C33.467 27.5516 33.1826 27.589 32.9148 27.6316ZM30.4647 27.9971C29.9341 28.077 29.4537 28.1534 29.3972 28.1667L29.2946 28.1911L29.3231 28.9283C29.3389 29.3338 29.3637 29.8537 29.3783 30.0836L29.405 30.5017L29.7526 30.502C29.9438 30.5022 30.2832 30.5298 30.5069 30.5634C30.9703 30.6329 30.9201 30.6618 31.1057 30.2193C31.3321 29.6794 31.5795 28.5164 31.5795 27.9919C31.5795 27.8131 31.6902 27.8126 30.4647 27.9971ZM28.3423 28.317C28.2479 28.3335 27.7415 28.4105 27.2167 28.4882C26.3232 28.6205 26.2628 28.6351 26.2634 28.7187C26.2645 28.8661 26.4207 29.5609 26.5196 29.8589C26.6575 30.2739 27.1207 31.1972 27.1784 31.1718C27.8486 30.8765 28.0735 30.7875 28.3279 30.717C28.4958 30.6705 28.6381 30.6271 28.6442 30.6206C28.6616 30.602 28.5499 28.3149 28.5309 28.3003C28.5214 28.293 28.4366 28.3006 28.3423 28.317ZM24.7835 28.8459L24.1832 28.9396L24.1965 29.1459C24.2286 29.6437 24.5942 30.5794 24.9813 31.1543C25.081 31.3024 25.3233 31.5852 25.5197 31.7828L25.8768 32.142L26.059 31.9753C26.1593 31.8836 26.2959 31.7694 26.3626 31.7213L26.4839 31.634L26.2467 31.1858C25.9535 30.6315 25.687 29.8464 25.5835 29.2314C25.5283 28.9035 25.487 28.7632 25.4444 28.7587C25.411 28.7551 25.1136 28.7943 24.7835 28.8459ZM29.4499 31.7275C29.4654 31.9612 29.4791 32.2682 29.4803 32.4097L29.4825 32.667L29.7336 32.3938C30.0716 32.0261 30.5154 31.412 30.4655 31.3812C30.4433 31.3675 30.1994 31.3442 29.9235 31.3294L29.4218 31.3025L29.4499 31.7275ZM28.2994 31.55C28.1343 31.6065 27.9169 31.6899 27.8162 31.7354L27.6331 31.8179L27.9676 32.1375C28.2998 32.4548 28.6954 32.7569 28.7316 32.7207C28.7744 32.6779 28.692 31.445 28.6465 31.4461C28.6207 31.4467 28.4645 31.4934 28.2994 31.55ZM30.9519 32.027C30.8073 32.2493 30.6988 32.4312 30.711 32.4312C30.7912 32.4312 31.6223 31.8451 31.6223 31.7886C31.6223 31.755 31.3074 31.6135 31.2463 31.6197C31.2291 31.6214 31.0966 31.8047 30.9519 32.027ZM26.7129 32.4071L26.5414 32.5534L26.7803 32.6598C27.0171 32.7653 27.4376 32.9028 27.5236 32.9028C27.5482 32.9028 27.4246 32.7581 27.2489 32.5812C27.0732 32.4044 26.9193 32.26 26.907 32.2603C26.8946 32.2606 26.8073 32.3268 26.7129 32.4071ZM35.333 39.4094C35.286 39.735 35.1258 40.042 34.9384 40.1656C34.5583 40.4163 34.6871 40.4105 29.0712 40.4287C26.2413 40.4378 23.9549 40.4371 23.9902 40.4271C24.0256 40.4171 25.8683 40.2137 28.085 39.9752C30.3017 39.7366 32.7811 39.468 33.5947 39.3783C34.4083 39.2886 35.1389 39.2131 35.2182 39.2104L35.3624 39.2057L35.333 39.4094Z" fill="#4162FF"/>
</svg>
