<svg width="58" height="58" viewBox="0 0 58 58" fill="none" xmlns="http://www.w3.org/2000/svg">
<circle r="28.5" transform="matrix(-4.37114e-08 -1 -1 4.37114e-08 29.2946 28.7048)" fill="#0082FF" fill-opacity="0.1"/>
<path fill-rule="evenodd" clip-rule="evenodd" d="M36.4442 18.9999H23.1109C22.8162 18.9999 22.5336 19.1169 22.3252 19.3253C22.1168 19.5337 21.9998 19.8163 21.9998 20.111V37.8888C21.9998 38.1835 22.1168 38.4661 22.3252 38.6744C22.5336 38.8828 22.8162 38.9999 23.1109 38.9999H36.4442C36.7389 38.9999 37.0215 38.8828 37.2299 38.6744C37.4383 38.4661 37.5553 38.1835 37.5553 37.8888V20.111C37.5553 19.8163 37.4383 19.5337 37.2299 19.3253C37.0215 19.1169 36.7389 18.9999 36.4442 18.9999ZM33.1109 34.5554H26.4442V32.3332H33.1109V34.5554ZM33.1109 30.111H26.4442V27.8888H33.1109V30.111ZM33.1109 25.6665H26.4442V23.4443H33.1109V25.6665Z" fill="#4162FF"/>
</svg>
