<svg width="35" height="35" viewBox="0 0 35 35" fill="none" xmlns="http://www.w3.org/2000/svg">
<circle cx="17.5" cy="17.5" r="17.5" fill="#0C1334"/>
<path d="M24.8397 23.4448C23.9331 25.6182 21.8076 25.9991 21.1131 25.9991C20.9091 25.9991 17.7325 26.1676 13.1666 21.8361C9.49195 18.3505 9.04295 14.6022 9.00389 13.8899C8.96581 13.1963 9.1644 11.4561 11.5582 10.1633C11.8548 10.003 12.4429 9.93206 12.5947 10.084C12.6621 10.1514 14.6714 13.4576 14.7241 13.5671C14.777 13.6765 14.8034 13.7842 14.8034 13.8899C14.8034 14.0408 14.6959 14.2297 14.4805 14.4563C14.2653 14.6827 14.0314 14.8905 13.7783 15.0792C13.5253 15.268 13.2912 15.468 13.0759 15.6795C12.8607 15.8908 12.7532 16.0647 12.7532 16.2005C12.7678 16.5531 13.0567 17.8162 15.258 19.7503C17.4597 21.685 18.5201 22.23 18.6224 22.2677C18.7245 22.3054 18.8093 22.324 18.8772 22.324C19.0132 22.324 19.1869 22.2166 19.3984 22.0014C19.6096 21.786 20.3204 20.8119 20.547 20.5966C20.7735 20.3817 20.9624 20.274 21.1135 20.274C21.2192 20.274 21.3267 20.3003 21.4361 20.3531C21.5456 20.406 24.8561 22.3431 24.9196 22.4079C25.0912 22.5841 24.9699 23.1336 24.8402 23.4447" fill="#4162FF"/>
</svg>
