<svg width="16" height="17" viewBox="0 0 13 14" fill="none" xmlns="http://www.w3.org/2000/svg">
<g clip-path="url(#clip0_3_873)">
<path d="M12.421 3.17453C11.962 3.37588 11.4729 3.50933 10.963 3.57413C11.4876 3.26093 11.8879 2.76876 12.0762 2.17553C11.5871 2.46713 11.0471 2.6731 10.4716 2.78805C10.0072 2.29356 9.3453 1.9873 8.62324 1.9873C7.22233 1.9873 6.0945 3.12439 6.0945 4.51836C6.0945 4.71893 6.11147 4.91179 6.15313 5.09539C4.04944 4.99279 2.18798 3.98453 0.937496 2.44862C0.719182 2.82739 0.591125 3.26093 0.591125 3.72765C0.591125 4.60399 1.04241 5.38082 1.7151 5.83056C1.30855 5.82285 0.909725 5.70482 0.571839 5.51891C0.571839 5.52662 0.571839 5.53665 0.571839 5.54668C0.571839 6.77633 1.44895 7.79771 2.59915 8.03299C2.39318 8.08931 2.1687 8.1163 1.93573 8.1163C1.77373 8.1163 1.61018 8.10705 1.45667 8.07311C1.78453 9.07519 2.71487 9.81191 3.8211 9.83582C2.96018 10.5093 1.86707 10.915 0.683697 10.915C0.476182 10.915 0.277154 10.9058 0.078125 10.8803C1.19901 11.6032 2.52741 12.0159 3.95995 12.0159C8.6163 12.0159 11.162 8.15873 11.162 4.81536C11.162 4.7035 11.1582 4.5955 11.1528 4.48828C11.655 4.13188 12.0769 3.68676 12.421 3.17453Z" fill="white" fill-opacity="0.6"/>
</g>
<defs>
<clipPath id="clip0_3_873">
<rect width="12.3429" height="12.3429" fill="white" transform="translate(0.078125 0.829102)"/>
</clipPath>
</defs>
</svg>
